inDegrees=yes
name=ik_tiny_file
DataType=double
version=3
OpenSimVersion=4.4-2022-07-23-0e9fedc
endheader
time	pelvis_tilt	pelvis_list	pelvis_rotation	pelvis_tx	pelvis_ty	pelvis_tz	hip_flexion_r	hip_adduction_r	hip_rotation_r	knee_angle_r	knee_angle_r_beta	ankle_angle_r	subtalar_angle_r	mtp_angle_r	hip_flexion_l	hip_adduction_l	hip_rotation_l	knee_angle_l	knee_angle_l_beta	ankle_angle_l	subtalar_angle_l	mtp_angle_l	lumbar_extension	lumbar_bending	lumbar_rotation	arm_flex_r	arm_add_r	arm_rot_r	elbow_flex_r	pro_sup_r	wrist_flex_r	wrist_dev_r	arm_flex_l	arm_add_l	arm_rot_l	elbow_flex_l	pro_sup_l	wrist_flex_l	wrist_dev_l
6.08	66.07843107175472	78.56716009747228	-66.06890088215241	0	0.9399999999999999	0	44.95434312148759	-10.00069444681906	0	59.99327109340771	1.047080109621503	-5.015007637804756	0	0	44.95434312148759	-10.00069444681906	0	59.99327109340771	1.047080109621503	-5.015007637804756	0	0	-9.341519229605973	4.639212742865112	5.223307560642588	19.70604096581754	-16.74266126976015	-2.755665047642694	40.69024654044877	44.99928469571243	0	5.000000125439451	2.007022756900814	1.679392591620909	1.37387287200632	0.09266329123242614	44.99928469571243	0	5.000000125439451
6.1	66.11275120907574	78.51490765389259	-66.10042204249827	0	0.9399999999999999	0	44.95471217275665	-10.00068096996426	0	59.99332584031359	1.047081065135266	-5.014854098484552	0	0	44.95471217275665	-10.00068096996426	0	59.99332584031359	1.047081065135266	-5.014854098484552	0	0	-9.534704609703876	4.646467007474419	5.04297982897133	19.79651245310232	-16.8703852141982	-3.422006593737848	44.74990924282522	44.99929654265644	0	5.000000125781961	2.185069256044821	1.686219055989867	1.216836658605414	0.09283875167544466	44.99929654265644	0	5.000000125781961
6.12	66.13311940043693	78.56560993135727	-66.21602623958616	0	0.9399999999999999	0	44.95502408760682	-10.00066927786309	0	59.99337135770398	1.047081859563595	-5.014723582250402	0	0	44.95502408760682	-10.00066927786309	0	59.99337135770398	1.047081859563595	-5.014723582250402	0	0	-9.486232015007612	4.633980595094031	5.147445386844369	20.10558274657953	-17.14303861850491	-3.940327054073062	48.3309723338843	44.99930676126661	0	5.000000126083942	2.170018997509427	1.731008949258497	1.329352362411875	0.09313733715722146	44.99930676126661	0	5.000000126083942
6.14	66.14697361802013	78.54276797588651	-66.27836279259826	0	0.9399999999999999	0	44.95525888106812	-10.00066053032122	0	59.99340559058925	1.047082457040156	-5.014625442324626	0	0	44.95525888106812	-10.00066053032122	0	59.99340559058925	1.047082457040156	-5.014625442324626	0	0	-9.522363316124334	4.642063804462418	5.180444920154127	20.73018519110051	-17.67870055608232	-3.968057235956819	51.15977355389109	44.99931441891134	0	5.000000126308629	2.148805031398761	1.776581947706299	1.456377173026221	0.09246218436227624	44.99931441891134	0	5.000000126308629
6.16	66.14966944711725	78.50440994209714	-66.31760739246624	0	0.9399999999999999	0	44.95549041933853	-10.00065202451208	0	59.99343948193717	1.047083048555765	-5.014528943692686	0	0	44.95549041933853	-10.00065202451208	0	59.99343948193717	1.047083048555765	-5.014528943692686	0	0	-9.58229173166025	4.659180253043381	5.23601082177383	21.4548010315089	-18.17907045747569	-3.913793313211079	54.11662373827514	44.99932188958714	0	5.000000126524981	2.137404189920762	1.78136173806365	1.572848043133869	0.0931645865591948	44.99932188958714	0	5.000000126524981
6.18	66.11849440975251	78.54633402171321	-66.36006209702809	0	0.9399999999999999	0	44.95551549865085	-10.00065073820838	0	59.99344243991966	1.047083100182298	-5.014517588289453	0	0	44.95551549865085	-10.00065073820838	0	59.99344243991966	1.047083100182298	-5.014517588289453	0	0	-9.5663036262199	4.671404056552321	5.431425617913137	22.602789583492	-18.78500222114845	-3.517173583020405	56.42115342257949	44.99932294783262	0	5.000000126563473	2.146855905257696	1.804499055463298	1.742409508164431	0.09410348189933271	44.99932294783262	0	5.000000126563473
6.2	66.07624919012424	78.64523885306431	-66.37619380138884	0	0.9399999999999999	0	44.95553212738612	-10.00064988748854	0	59.99344440353425	1.047083134453838	-5.014510063296511	0	0	44.95553212738612	-10.00064988748854	0	59.99344440353425	1.047083134453838	-5.014510063296511	0	0	-9.423426232013725	4.627088780123476	5.649059068902066	24.01176012876108	-19.53820470959199	-2.987574226338213	58.32040318940739	44.99932364813132	0	5.000000126588886	2.067562485409948	1.821274833123344	2.030776086839628	0.09401377460772413	44.99932364813132	0	5.000000126588886
6.22	66.03507299873965	78.68341589054617	-66.36887028973698	0	0.9399999999999999	0	44.95554796724799	-10.00064907807625	0	59.99344627456012	1.0470831671094	-5.014502896832499	0	0	44.95554796724799	-10.00064907807625	0	59.99344627456012	1.0470831671094	-5.014502896832499	0	0	-9.385234235638855	4.632141659192579	5.906867981995932	25.4522206929142	-20.31854709451243	-2.448660376652276	60.65013105099256	44.99932431463326	0	5.000000126613035	2.042370752019404	1.855000660812187	2.384601229611252	0.094921346766121	44.99932431463326	0	5.000000126613035
6.24	65.94559422227286	78.67760293493325	-66.31268523367973	0	0.9399999999999999	0	44.95557835057734	-10.00064752323928	0	59.99344985595419	1.047083229616518	-5.01448914285313	0	0	44.95557835057734	-10.00064752323928	0	59.99344985595419	1.047083229616518	-5.01448914285313	0	0	-9.390608854742348	4.680205663943642	6.355732060063117	27.25528618604513	-21.24179249106384	-1.419269308357665	62.09774835445177	44.99932559481287	0	5.000000126659417	1.984615662240169	1.916254152964265	2.907345331313187	0.09511578657570451	44.99932559481287	0	5.000000126659417
6.26	65.86271252809028	78.76162464537892	-66.21582862924284	0	0.9399999999999999	0	44.95560353685455	-10.00064623713716	0	59.99345282658004	1.04708328146372	-5.0144777460996	0	0	44.95560353685455	-10.00064623713716	0	59.99345282658004	1.04708328146372	-5.0144777460996	0	0	-9.249134969677131	4.639492876316695	6.788884678768852	28.54358215700208	-22.19090422393091	-0.9511230165077833	64.01365911562856	44.99932665432569	0	5.00000012669771	1.873324922494876	1.908563076789686	3.418214493375285	0.0951759537834133	44.99932665432569	0	5.00000012669771
6.28	65.79427757446308	78.84713334835759	-66.11561516874043	0	0.9399999999999999	0	44.95562098373292	-10.00064534798835	0	59.99345488588837	1.047083317405431	-5.014469854557197	0	0	44.95562098373292	-10.00064534798835	0	59.99345488588837	1.047083317405431	-5.014469854557197	0	0	-9.076103548554357	4.606431563430539	7.184510347192459	29.86515537097246	-23.06170115431233	-0.2726629048636211	65.77120355138673	44.99932738717684	0	5.000000126724146	1.764974175711837	1.880956393851355	3.818380782412929	0.09612356069222883	44.99932738717684	0	5.000000126724146
6.3	65.67495781441674	78.80575919313598	-65.96501080956354	0	0.9399999999999999	0	44.95564653507054	-10.00064404599116	0	59.99345789947623	1.047083370002462	-5.014458295972742	0	0	44.95564653507054	-10.00064404599116	0	59.99345789947623	1.047083370002462	-5.014458295972742	0	0	-9.04485091758559	4.666557660028415	7.555590891572146	31.44845570800294	-23.92630188293883	0.6154537218375938	67.1710890373064	44.99932846048414	0	5.000000126762816	1.673126531938584	1.939127175096327	4.221372304657794	0.09556823002600726	44.99932846048414	0	5.000000126762816
6.32	65.50462001076156	78.88765686146617	-65.77143182514301	0	0.9399999999999999	0	44.95568418114927	-10.00064212952595	0	59.99346233716498	1.047083447454741	-5.014441266890778	0	0	44.95568418114927	-10.00064212952595	0	59.99346233716498	1.047083447454741	-5.014441266890778	0	0	-8.90703456439838	4.644214905053494	7.951838890471612	33.02845587560881	-24.72028712886978	1.462435233832507	68.35301859608779	44.99933004093297	0	5.000000126819647	1.585630174646281	1.954977970809338	4.653565192190552	0.09428133737760926	44.99933004093297	0	5.000000126819647
6.34	65.42826471833051	78.93182547178102	-65.64197880747621	0	0.9399999999999999	0	44.95570743853234	-10.00064094911679	0	59.99346508207399	1.047083495362441	-5.014430753066561	0	0	44.95570743853234	-10.00064094911679	0	59.99346508207399	1.047083495362441	-5.014430753066561	0	0	-8.927041248563416	4.603312171060454	8.432270704257666	34.0107206769836	-25.48909408971834	1.715330286683033	70.16955239799914	44.9993310150883	0	5.00000012685457	1.623481262706461	1.92702295557778	5.186300436521869	0.09360922844561401	44.9993310150883	0	5.00000012685457
